<?xml version="1.0" encoding="iso-8859-1"?>
<!-- Generator: Adobe Illustrator 19.0.0, SVG Export Plug-In . SVG Version: 6.00 Build 0)  -->
<svg version="1.1" id="Layer_1" xmlns="http://www.w3.org/2000/svg" xmlns:xlink="http://www.w3.org/1999/xlink" x="0px" y="0px"
	 viewBox="0 0 512 512" style="enable-background:new 0 0 512 512;" xml:space="preserve">
<g transform="translate(1 1)">
	<g>
		<g>
			<path d="M425.667,67.267h-22.372l-46.748-61.44C353.133,1.56,348.013-1,342.893-1H167.96c-5.12,0-10.24,2.56-13.653,6.827
				l-47.416,61.44H84.333c-9.387,0-17.067,7.68-17.067,17.067v34.133c0,9.387,7.68,17.067,17.067,17.067h10.069l4.793,53.25
				c-2.065,1.034-3.943,2.391-5.475,3.923c-3.413,4.267-5.12,8.533-4.267,13.653l20.48,220.16
				c0.688,7.564,5.811,13.459,12.685,15.466l5.235,53.654c0.853,8.533,7.68,15.36,17.067,15.36h220.16
				c9.387,0,16.213-6.827,16.213-15.36l5.213-53.434c7.309-1.747,12.844-7.806,13.56-15.686l20.48-220.16
				c0.853-5.12-0.853-10.24-4.267-13.653c-1.525-1.906-3.391-3.298-5.445-4.258l4.762-52.915h10.069
				c9.387,0,17.067-7.68,17.067-17.067V84.333C442.733,74.947,435.053,67.267,425.667,67.267z M167.96,16.067h174.08l39.253,51.2
				h-253.44L167.96,16.067z M365.08,493.933H144.92l-5.12-51.2h230.4L365.08,493.933z M402.627,203.8l-20.48,221.013
				c0,0.853,0,0.853-0.853,0.853h-253.44c-0.853,0-0.853-0.853-0.853-0.853l-20.48-220.16L402.627,203.8L402.627,203.8z
				 M393.24,186.733H115.907l-4.267-51.2h286.72L393.24,186.733z M425.667,118.467h-8.533H92.867h-8.533V84.333h9.387h322.56h9.387
				V118.467z"/>
			<path d="M255,408.6c52.907,0,93.867-40.96,93.867-93.867s-40.96-93.867-93.867-93.867s-93.867,40.96-93.867,93.867
				S202.093,408.6,255,408.6z M255,237.933c43.52,0,76.8,34.133,76.8,76.8s-34.133,76.8-76.8,76.8s-76.8-34.133-76.8-76.8
				S211.48,237.933,255,237.933z"/>
			<path d="M255,374.467c5.12,0,8.533-3.413,8.533-8.533S260.12,357.4,255,357.4c-23.893,0-42.667-18.773-42.667-42.667
				c0-5.12-3.413-8.533-8.533-8.533s-8.533,3.413-8.533,8.533C195.267,348.013,221.72,374.467,255,374.467z"/>
		</g>
	</g>
</g>
<g>
</g>
<g>
</g>
<g>
</g>
<g>
</g>
<g>
</g>
<g>
</g>
<g>
</g>
<g>
</g>
<g>
</g>
<g>
</g>
<g>
</g>
<g>
</g>
<g>
</g>
<g>
</g>
<g>
</g>
</svg>
