<?xml version="1.0" encoding="iso-8859-1"?>
<!-- Generator: Adobe Illustrator 17.1.0, SVG Export Plug-In . SVG Version: 6.00 Build 0)  -->
<!DOCTYPE svg PUBLIC "-//W3C//DTD SVG 1.1//EN" "http://www.w3.org/Graphics/SVG/1.1/DTD/svg11.dtd">
<svg version="1.1" id="Capa_1" xmlns="http://www.w3.org/2000/svg" xmlns:xlink="http://www.w3.org/1999/xlink" x="0px" y="0px"
	 viewBox="0 0 297 297" style="enable-background:new 0 0 297 297;" xml:space="preserve">
<g>
	<path d="M289,235.5H8c-4.418,0-8,3.582-8,8s3.582,8,8,8h281c4.418,0,8-3.582,8-8S293.418,235.5,289,235.5z"/>
	<path d="M97,221.5h87c24.956,0,46.279-15.844,54.444-38h5.056c29.5,0,53.5-24,53.5-53.5s-24-53.5-53.5-53.5h-1.833v-23
		c0-4.418-3.249-8-7.667-8H47c-4.418,0-8.333,3.582-8.333,8v110C38.667,195.481,65.019,221.5,97,221.5z M225.667,100.979
		c-8-1.152-13.275-4.1-19-7.406C198.493,88.852,189.31,83.5,171.583,83.5c-17.727,0-26.951,5.351-35.126,10.072
		c-7.365,4.254-13.706,7.928-27.146,7.928c-13.438,0-19.956-3.674-27.321-7.928c-6.843-3.952-14.322-8.333-27.322-9.66V61.5h171
		V100.979z M54.667,100.021c9,1.152,13.606,4.1,19.331,7.406c8.175,4.721,17.523,10.072,35.25,10.072
		c17.729,0,27.036-5.352,35.211-10.072c7.365-4.254,13.747-7.928,27.187-7.928c13.439,0,19.811,3.674,27.176,7.928
		c6.771,3.91,14.146,8.244,26.605,9.62c0.132,0.015,0.24,0.026,0.24,0.04v0.422v45.99c0,23.159-18.508,42-41.667,42H97
		c-23.159,0-42.333-18.841-42.333-42V100.021z M243.5,92.5c20.678,0,37.5,16.822,37.5,37.5s-16.822,37.5-37.5,37.5h-1.653
		c0.091-1.323-0.18-2.654-0.18-4v-71H243.5z"/>
</g>
<g>
</g>
<g>
</g>
<g>
</g>
<g>
</g>
<g>
</g>
<g>
</g>
<g>
</g>
<g>
</g>
<g>
</g>
<g>
</g>
<g>
</g>
<g>
</g>
<g>
</g>
<g>
</g>
<g>
</g>
</svg>
